<svg width="500" height="373" viewBox="0 0 500 373" fill="none" xmlns="http://www.w3.org/2000/svg">
<g clip-path="url(#clip0_105_2)">
<path d="M500 327.398H0V327.648H500V327.398Z" fill="#EBEBEB"/>
<path d="M449.901 343.494H416.779V343.744H449.901V343.494Z" fill="#EBEBEB"/>
<path d="M331.22 346.208H322.527V346.458H331.22V346.208Z" fill="#EBEBEB"/>
<path d="M415.778 334.208H396.586V334.458H415.778V334.208Z" fill="#EBEBEB"/>
<path d="M95.652 335.888H52.459V336.138H95.652V335.888Z" fill="#EBEBEB"/>
<path d="M110.889 335.888H104.556V336.138H110.889V335.888Z" fill="#EBEBEB"/>
<path d="M225.147 340.111H131.471V340.361H225.147V340.111Z" fill="#EBEBEB"/>
<path d="M237.014 282.8H43.915C40.768 282.8 38.207 280.239 38.207 277.092V5.6599C38.207 2.5129 40.768 -0.0480957 43.915 -0.0480957H237.014C240.16 -0.0480957 242.721 2.5129 242.721 5.6599V277.092C242.721 280.239 240.16 282.8 237.014 282.8ZM43.915 0.202904C40.905 0.202904 38.457 2.6509 38.457 5.6609V277.093C38.457 280.103 40.905 282.551 43.915 282.551H237.014C240.023 282.551 242.471 280.103 242.471 277.093V5.6599C242.471 2.6509 240.023 0.201904 237.014 0.201904L43.915 0.202904Z" fill="#EBEBEB"/>
<path d="M453.31 282.8H260.212C257.065 282.8 254.505 280.239 254.505 277.092V5.6599C254.505 2.5129 257.066 -0.0480957 260.212 -0.0480957H453.31C456.458 -0.0480957 459.018 2.5129 459.018 5.6599V277.092C459.019 280.239 456.458 282.8 453.31 282.8ZM260.212 0.202904C257.203 0.202904 254.755 2.6509 254.755 5.6609V277.093C254.755 280.103 257.203 282.551 260.212 282.551H453.31C456.32 282.551 458.768 280.103 458.768 277.093V5.6599C458.768 2.6509 456.32 0.201904 453.31 0.201904L260.212 0.202904Z" fill="#EBEBEB"/>
<path d="M126.618 56.2339H66.9629V145.153H126.618V56.2339Z" fill="#E6E6E6"/>
<path d="M126.618 145.154H127.556L127.556 56.2348H126.618L126.618 145.154Z" fill="#E0E0E0"/>
<path d="M123.241 141.777L123.241 59.6113L70.3405 59.6113L70.3405 141.777H123.241Z" fill="#FAFAFA"/>
<path d="M106.787 93.9488C112.309 88.4269 112.309 79.474 106.787 73.9521C101.265 68.4301 92.3123 68.4301 86.7904 73.952C81.2684 79.474 81.2684 88.4269 86.7904 93.9488C92.3124 99.4708 101.265 99.4708 106.787 93.9488Z" fill="#F0F0F0"/>
<path d="M114.236 106.275H79.3438V109.847H114.236V106.275Z" fill="#EBEBEB"/>
<path d="M114.236 115.768H79.3438V119.34H114.236V115.768Z" fill="#EBEBEB"/>
<path d="M114.236 125.261H79.3438V128.833H114.236V125.261Z" fill="#EBEBEB"/>
<path d="M201.578 69.0378H141.923V157.957H201.578V69.0378Z" fill="#E6E6E6"/>
<path d="M201.578 157.956H202.516V69.0373H201.578V157.956Z" fill="#E0E0E0"/>
<path d="M198.2 154.58L198.2 72.4141L145.299 72.4141V154.58H198.2Z" fill="#FAFAFA"/>
<path d="M185.512 100.019C187.307 92.4194 182.601 84.8036 175.001 83.009C167.4 81.2144 159.785 85.9207 157.99 93.5207C156.196 101.121 160.902 108.737 168.502 110.531C176.102 112.326 183.718 107.619 185.512 100.019Z" fill="#F0F0F0"/>
<path d="M189.196 119.078H154.304V122.65H189.196V119.078Z" fill="#EBEBEB"/>
<path d="M189.196 128.571H154.304V132.143H189.196V128.571Z" fill="#EBEBEB"/>
<path d="M189.196 138.064H154.304V141.636H189.196V138.064Z" fill="#EBEBEB"/>
<path d="M411.926 195H151.237V197.778H411.926V195Z" fill="#EBEBEB"/>
<path d="M411.925 197.778H433.036V195H411.925V197.778Z" fill="#E0E0E0"/>
<path d="M411.925 197.778H154.814V327.399H411.925V197.778Z" fill="#F5F5F5"/>
<path d="M212.481 197.778H211.037V327.399H212.481V197.778Z" fill="#E6E6E6"/>
<path d="M280.481 224.135H279.037V327.398H280.481V224.135Z" fill="#E6E6E6"/>
<path d="M211.758 301.763V300.319H154.813V301.763H211.758Z" fill="#E6E6E6"/>
<path d="M211.759 276.128V274.684H154.814V276.128H211.759Z" fill="#E6E6E6"/>
<path d="M211.759 250.493V249.049H154.814V250.493H211.759Z" fill="#E6E6E6"/>
<path d="M411.925 224.857V223.413L154.814 223.413V224.857L411.925 224.857Z" fill="#E6E6E6"/>
<path d="M411.925 327.398H430.4V197.777H411.925V327.398Z" fill="#EBEBEB"/>
<path d="M416.274 21.7139H325.274V151.294H416.274V21.7139Z" fill="#FAFAFA"/>
<path d="M417.274 23.269H324.274C323.415 23.269 322.718 22.573 322.718 21.714C322.718 20.855 323.415 20.158 324.274 20.158H417.274C418.133 20.158 418.83 20.854 418.83 21.714C418.829 22.573 418.133 23.269 417.274 23.269Z" fill="#EBEBEB"/>
<path d="M417.274 152.849H324.274C323.415 152.849 322.718 152.152 322.718 151.293C322.718 150.434 323.415 149.738 324.274 149.738H417.274C418.133 149.738 418.83 150.434 418.83 151.293C418.829 152.153 418.133 152.849 417.274 152.849Z" fill="#EBEBEB"/>
<path d="M374.187 96.2139H367.361C361.538 96.2139 356.774 91.4499 356.774 85.6269V64.2999C356.774 58.4769 361.538 53.7129 367.361 53.7129H374.187C380.01 53.7129 384.774 58.4769 384.774 64.2999V85.6259C384.774 91.4489 380.01 96.2139 374.187 96.2139Z" fill="#F0F0F0"/>
<path d="M362.774 139.38C359.474 139.38 356.774 136.68 356.774 133.38V88.0471C356.774 84.7471 359.474 82.0471 362.774 82.0471C366.074 82.0471 368.774 84.7471 368.774 88.0471V133.38C368.774 136.68 366.074 139.38 362.774 139.38Z" fill="#F0F0F0"/>
<path d="M351.065 93.105C349.094 93.105 347.482 91.493 347.482 89.522V62.448C347.482 60.477 349.094 58.865 351.065 58.865C353.036 58.865 354.648 60.478 354.648 62.448V89.522C354.648 91.493 353.035 93.105 351.065 93.105Z" fill="#F0F0F0"/>
<path d="M390.483 93.105C388.512 93.105 386.9 91.493 386.9 89.522V62.448C386.9 60.477 388.512 58.865 390.483 58.865C392.454 58.865 394.066 60.478 394.066 62.448V89.522C394.066 91.493 392.454 93.105 390.483 93.105Z" fill="#F0F0F0"/>
<path d="M378.774 139.38C375.474 139.38 372.774 136.68 372.774 133.38V88.0471C372.774 84.7471 375.474 82.0471 378.774 82.0471C382.074 82.0471 384.774 84.7471 384.774 88.0471V133.38C384.774 136.68 382.074 139.38 378.774 139.38Z" fill="#F0F0F0"/>
<path d="M377.016 47.1277C380.466 43.6782 380.466 38.0855 377.016 34.636C373.567 31.1866 367.974 31.1866 364.525 34.636C361.075 38.0855 361.075 43.6782 364.525 47.1277C367.974 50.5771 373.567 50.5771 377.016 47.1277Z" fill="#F0F0F0"/>
<path d="M381.161 169.667H339.272V195H381.161V169.667Z" fill="#F5F5F5"/>
<path d="M381.161 195H391.481V169.667H381.161V195Z" fill="#EBEBEB"/>
<path d="M368.216 179.915H362.635V174.333H357.798V179.915H352.216V184.752H357.798V190.333H362.635V184.752H368.216V179.915Z" fill="white"/>
<path d="M302.592 195H298.592V150.192C298.592 141.86 291.813 135.081 283.481 135.081C275.149 135.081 268.371 141.86 268.371 150.192H264.371C264.371 139.654 272.944 131.081 283.481 131.081C294.019 131.081 302.592 139.654 302.592 150.192V195Z" fill="#EBEBEB"/>
<path d="M310.037 188.444H306.037V195H310.037V188.444Z" fill="#EBEBEB"/>
<path d="M182.831 192.667H178.831V195H182.831V192.667Z" fill="#EBEBEB"/>
<path d="M175.744 192.667H171.744V195H175.744V192.667Z" fill="#EBEBEB"/>
<path d="M137.806 254.273H85.7358V327.398H137.806V254.273Z" fill="#F5F5F5"/>
<path d="M135.78 252.437H87.7627V254.274H135.78V252.437Z" fill="#E6E6E6"/>
<path d="M102.235 235.938H121.308C130.42 235.938 137.806 243.325 137.806 252.437H85.7358C85.7358 243.325 93.1228 235.938 102.235 235.938Z" fill="#F5F5F5"/>
<path d="M92.6548 319.377H87.1458C82.7158 319.377 79.1238 322.968 79.1238 327.399H100.677C100.677 322.968 97.0858 319.377 92.6548 319.377Z" fill="#E6E6E6"/>
<path d="M250 372.561C357.082 372.561 443.889 367.492 443.889 361.238C443.889 354.985 357.082 349.915 250 349.915C142.918 349.915 56.1111 354.985 56.1111 361.238C56.1111 367.492 142.918 372.561 250 372.561Z" fill="#F5F5F5"/>
<path d="M191.705 91.1341L187.172 85.5691L180.83 89.5521C180.83 89.5521 183.732 92.6451 187.246 96.9821L191.705 91.1341Z" fill="#B55B52"/>
<path d="M248.322 91.578C248.057 92.142 247.881 92.479 247.661 92.912L247.03 94.113C246.605 94.9 246.175 95.678 245.732 96.445C244.849 97.98 243.928 99.487 242.958 100.972C241.02 103.944 238.938 106.855 236.536 109.644C234.142 112.428 231.46 115.124 228.235 117.535C226.607 118.73 224.837 119.846 222.875 120.796L221.368 121.473L219.779 122.061C219.245 122.249 218.673 122.393 218.12 122.551L217.701 122.665C217.581 122.7 217.294 122.757 217.097 122.798C216.656 122.892 216.229 122.952 215.806 122.995C214.107 123.171 212.567 123.029 211.229 122.763C209.884 122.494 208.702 122.115 207.622 121.688C205.471 120.828 203.703 119.802 202.058 118.739C198.807 116.599 196.101 114.262 193.527 111.874C190.962 109.487 188.583 107.019 186.3 104.493C185.156 103.232 184.03 101.963 182.929 100.671C181.812 99.36 180.776 98.116 179.633 96.66L190.697 88.079C191.556 89.17 192.59 90.418 193.576 91.57C194.58 92.74 195.598 93.899 196.642 95.027C198.734 97.277 200.891 99.443 203.099 101.437C205.305 103.416 207.603 105.233 209.806 106.596C210.896 107.264 211.975 107.817 212.847 108.128C213.707 108.46 214.354 108.444 214.156 108.398C214.136 108.398 214.11 108.402 214.063 108.402C214.063 108.397 213.978 108.427 214.051 108.401L214.215 108.342C214.434 108.259 214.651 108.21 214.876 108.115L215.554 107.831L216.247 107.478C217.179 106.972 218.139 106.324 219.093 105.564C221.002 104.018 222.869 102.042 224.576 99.817C226.296 97.606 227.892 95.165 229.353 92.625C230.078 91.351 230.771 90.047 231.425 88.731C231.754 88.074 232.067 87.412 232.373 86.754L232.813 85.775C232.943 85.477 233.114 85.083 233.179 84.907L248.322 91.578Z" fill="#9C27B0"/>
<path opacity="0.8" d="M248.322 91.578C248.057 92.142 247.881 92.479 247.661 92.912L247.03 94.113C246.605 94.9 246.175 95.678 245.732 96.445C244.849 97.98 243.928 99.487 242.958 100.972C241.02 103.944 238.938 106.855 236.536 109.644C234.142 112.428 231.46 115.124 228.235 117.535C226.607 118.73 224.837 119.846 222.875 120.796L221.368 121.473L219.779 122.061C219.245 122.249 218.673 122.393 218.12 122.551L217.701 122.665C217.581 122.7 217.294 122.757 217.097 122.798C216.656 122.892 216.229 122.952 215.806 122.995C214.107 123.171 212.567 123.029 211.229 122.763C209.884 122.494 208.702 122.115 207.622 121.688C205.471 120.828 203.703 119.802 202.058 118.739C198.807 116.599 196.101 114.262 193.527 111.874C190.962 109.487 188.583 107.019 186.3 104.493C185.156 103.232 184.03 101.963 182.929 100.671C181.812 99.36 180.776 98.116 179.633 96.66L190.697 88.079C191.556 89.17 192.59 90.418 193.576 91.57C194.58 92.74 195.598 93.899 196.642 95.027C198.734 97.277 200.891 99.443 203.099 101.437C205.305 103.416 207.603 105.233 209.806 106.596C210.896 107.264 211.975 107.817 212.847 108.128C213.707 108.46 214.354 108.444 214.156 108.398C214.136 108.398 214.11 108.402 214.063 108.402C214.063 108.397 213.978 108.427 214.051 108.401L214.215 108.342C214.434 108.259 214.651 108.21 214.876 108.115L215.554 107.831L216.247 107.478C217.179 106.972 218.139 106.324 219.093 105.564C221.002 104.018 222.869 102.042 224.576 99.817C226.296 97.606 227.892 95.165 229.353 92.625C230.078 91.351 230.771 90.047 231.425 88.731C231.754 88.074 232.067 87.412 232.373 86.754L232.813 85.775C232.943 85.477 233.114 85.083 233.179 84.907L248.322 91.578Z" fill="white"/>
<path d="M246.104 251.402H278.38L266.143 190.218H250.333L246.104 251.402Z" fill="#9C27B0"/>
<path opacity="0.6" d="M246.104 251.402H278.38L266.143 190.218H250.333L246.104 251.402Z" fill="white"/>
<path d="M253.021 352.101H244.795L244.443 333.052H252.668L253.021 352.101Z" fill="#B55B52"/>
<path d="M298.587 352.101H290.361L286.694 333.052H294.919L298.587 352.101Z" fill="#B55B52"/>
<path d="M289.8 351.148H299.041C299.377 351.148 299.663 351.381 299.728 351.71L301.173 359.022C301.323 359.78 300.709 360.498 299.933 360.485C296.708 360.43 295.145 360.24 291.081 360.24C288.581 360.24 283.423 360.5 279.971 360.5C276.594 360.5 276.151 357.086 277.572 356.777C283.944 355.391 286.378 353.479 288.452 351.655C288.826 351.325 289.308 351.148 289.8 351.148Z" fill="#263238"/>
<path d="M244.872 351.148H253.855C254.191 351.148 254.477 351.381 254.542 351.71L255.988 359.021C256.138 359.779 255.545 360.497 254.769 360.484C251.53 360.429 246.852 360.239 242.779 360.239C238.017 360.239 237.633 360.499 232.049 360.499C228.672 360.499 227.819 357.085 229.24 356.776C235.709 355.368 237.232 355.217 242.876 351.789C243.489 351.417 244.163 351.148 244.872 351.148Z" fill="#263238"/>
<path d="M184.102 83.669L178.782 83.595L177.755 90.45C177.755 90.45 182.977 91.571 187.844 89.43L187.746 87.205C187.659 85.247 186.061 83.696 184.102 83.669Z" fill="#B55B52"/>
<path d="M170.464 83.908L171.491 88.245L177.755 90.449L178.783 83.594L170.464 83.908Z" fill="#B55B52"/>
<path opacity="0.2" d="M244.444 333.057L244.624 342.876H252.854L252.673 333.057H244.444Z" fill="black"/>
<path opacity="0.2" d="M294.922 333.057H286.693L288.588 342.876H296.817L294.922 333.057Z" fill="black"/>
<path d="M234.728 86.4721C232.447 95.1871 228.365 117.193 232.835 152.181H276.831C277.257 146.049 274.463 118.321 279.406 89.4481C280.258 84.4731 276.804 79.7931 271.788 79.2351C270.078 79.0451 268.267 78.8861 266.476 78.7991C260.861 78.5281 253 78.9451 248.047 79.3961C245.133 79.6611 242.425 80.2481 240.321 80.8151C237.578 81.5571 235.447 83.7241 234.728 86.4721Z" fill="white"/>
<path d="M264.46 61.3081C263.133 67.3261 262.364 74.7841 266.476 78.7991C266.476 78.7991 263.908 84.9031 252.726 84.9031C242.508 84.9031 247.773 78.7991 247.773 78.7991C254.523 77.1961 254.376 68.8981 253.322 64.2221L264.46 61.3081Z" fill="#B55B52"/>
<path d="M252.198 84.0659L249.777 86.7429C249.604 86.9349 249.546 87.2019 249.625 87.4429L250.4 89.8029C250.489 90.0729 250.733 90.2579 251.019 90.2719L253.627 90.3979C253.876 90.4099 254.116 90.2889 254.258 90.0809L255.817 87.7889C255.999 87.5209 255.981 87.1689 255.772 86.9309L253.25 84.0589C252.976 83.7469 252.484 83.7499 252.198 84.0659Z" fill="#9C27B0"/>
<path d="M251.588 90.249C251.588 90.249 247.588 119.695 247.496 124.818C247.37 131.862 249.758 139.101 249.758 139.101C249.758 139.101 252.507 133.895 252.984 124.6C253.454 115.439 252.882 95.467 253.086 90.248L251.588 90.249Z" fill="#9C27B0"/>
<path opacity="0.2" d="M253.316 64.229C253.945 66.968 254.251 70.954 253.029 74.109C253.835 74.457 257.132 73.19 258.502 72.317C261.547 70.378 262.725 68.482 263.853 64.432C264.025 63.365 264.23 62.321 264.457 61.311L253.316 64.229Z" fill="black"/>
<path d="M242.882 58.3761C243.664 60.4231 245.318 61.8941 246.974 62.5711C249.465 63.5891 251.066 61.3931 250.671 58.8431C250.316 56.5481 248.593 53.2531 245.949 53.3211C243.345 53.3881 241.988 56.0351 242.882 58.3761Z" fill="#B55B52"/>
<path opacity="0.2" d="M242.882 58.3761C243.664 60.4231 245.318 61.8941 246.974 62.5711C249.465 63.5891 251.066 61.3931 250.671 58.8431C250.316 56.5481 248.593 53.2531 245.949 53.3211C243.345 53.3881 241.988 56.0351 242.882 58.3761Z" fill="black"/>
<path d="M253.025 49.3661C252.551 52.8941 250.352 55.5111 248.114 55.2101C245.876 54.9091 244.445 51.8051 244.919 48.2761C245.393 44.7471 247.592 42.1311 249.83 42.4311C252.068 42.7331 253.499 45.8381 253.025 49.3661Z" fill="#263238"/>
<path d="M268.401 53.5081C266.393 61.4991 265.618 66.2691 260.813 69.7331C253.585 74.9431 244.443 69.5821 244.057 61.2021C243.71 53.6591 247.052 41.8581 255.458 39.9641C263.74 38.0981 270.409 45.5171 268.401 53.5081Z" fill="#B55B52"/>
<path d="M255.12 37.171C250.334 38.205 245.031 42.083 249.598 44.927C254.165 47.771 264.458 48.223 264.458 48.223C264.458 48.223 261.06 56.216 265.713 60.352C267.264 59.576 263.951 66.563 263.951 66.563C263.951 66.563 266.316 65.953 267.953 63.196C270.726 62.489 278.983 49.236 273.468 45.444C272.434 37.688 261.548 35.783 255.12 37.171Z" fill="#263238"/>
<path d="M266.682 58.3309C266.646 58.3309 266.61 58.3229 266.574 58.3069L259.365 55.0099C259.235 54.9509 259.177 54.7979 259.237 54.6679C259.298 54.5379 259.451 54.4819 259.58 54.5399L266.789 57.8369C266.919 57.8959 266.977 58.0489 266.917 58.1789C266.874 58.2749 266.78 58.3309 266.682 58.3309Z" fill="white"/>
<path d="M270.328 63.0159C268.848 64.6809 266.76 65.5189 264.959 65.6109C262.251 65.7499 261.549 63.1639 262.849 60.9009C264.019 58.8639 266.837 56.3369 269.293 57.2669C271.711 58.1839 272.02 61.1119 270.328 63.0159Z" fill="#B55B52"/>
<path d="M232.835 152.181C232.835 152.181 230.195 213.682 230.474 238.767C230.765 264.858 241.606 340.974 241.606 340.974H255.541C255.541 340.974 254.288 266.383 255.536 240.758C256.897 212.823 261.756 152.181 261.756 152.181H232.835Z" fill="#9C27B0"/>
<path d="M256.194 334.822C256.259 334.822 256.453 341.259 256.453 341.259H240.391L239.471 334.261L256.194 334.822Z" fill="#263238"/>
<path opacity="0.2" d="M251.679 168.46C251.197 198.981 252.582 217.518 255.989 232.418C256.829 217.861 258.205 198.613 259.407 182.622L251.679 168.46Z" fill="black"/>
<path d="M248.442 152.181C248.442 152.181 256.236 215.043 260.783 238.594C265.763 264.384 284.8 340.974 284.8 340.974H299.866C299.866 340.974 287.979 266.465 285.403 240.931C282.607 213.218 276.831 152.18 276.831 152.18H248.442V152.181Z" fill="#9C27B0"/>
<path d="M299.493 335.165C299.557 335.165 300.61 341.259 300.61 341.259H284.05L282.234 334.541L299.493 335.165Z" fill="#263238"/>
<path d="M255.888 53.721C255.764 54.378 255.32 54.853 254.896 54.781C254.472 54.709 254.228 54.118 254.352 53.461C254.476 52.804 254.92 52.329 255.344 52.401C255.768 52.473 256.011 53.064 255.888 53.721Z" fill="#263238"/>
<path d="M247.82 51.8211C247.696 52.4781 247.252 52.9531 246.828 52.8811C246.404 52.8091 246.16 52.2181 246.284 51.5611C246.408 50.9041 246.852 50.4291 247.276 50.5011C247.7 50.5721 247.944 51.1631 247.82 51.8211Z" fill="#263238"/>
<path d="M251.178 53.4709C251.178 53.4709 248.583 56.7289 246.444 58.0389C247.229 59.4219 249.28 59.4999 249.28 59.4999L251.178 53.4709Z" fill="#A02724"/>
<path d="M251.204 61.549C251.099 61.531 251.03 61.43 251.05 61.324C251.07 61.218 251.172 61.145 251.277 61.163C254.126 61.645 255.834 59.854 255.852 59.836C255.928 59.757 256.051 59.751 256.126 59.825C256.203 59.898 256.206 60.021 256.131 60.101C256.055 60.18 254.258 62.065 251.204 61.549Z" fill="#263238"/>
<path d="M259.796 51.5759C259.683 51.5459 259.586 51.4649 259.541 51.3479C258.915 49.7389 257.518 49.4569 257.503 49.4559C257.304 49.4269 257.158 49.2129 257.203 48.9999C257.247 48.7879 257.454 48.6479 257.664 48.6869C257.739 48.6999 259.489 49.0499 260.265 51.0479C260.343 51.2479 260.243 51.4759 260.043 51.5579C259.962 51.5919 259.875 51.5969 259.796 51.5759Z" fill="#263238"/>
<path d="M245.753 48.6701C245.698 48.6571 245.644 48.6321 245.598 48.5931C245.435 48.4571 245.415 48.2111 245.554 48.0431C246.943 46.3611 248.722 46.5271 248.797 46.5341C249.005 46.5481 249.16 46.7471 249.133 46.9641C249.106 47.1791 248.913 47.3341 248.702 47.3141C248.643 47.3081 247.254 47.1941 246.145 48.5361C246.046 48.6561 245.892 48.7031 245.753 48.6701Z" fill="#263238"/>
<path d="M255.744 58.399C255.546 58.399 255.346 58.382 255.146 58.346C254.219 58.182 253.397 57.64 252.829 56.822C252.153 55.848 251.897 54.57 252.128 53.316C252.567 50.917 254.65 49.272 256.739 49.644C257.665 49.808 258.487 50.349 259.055 51.167C259.731 52.141 259.988 53.418 259.757 54.673C259.757 54.673 259.757 54.6731 259.757 54.6741C259.36 56.8441 257.627 58.399 255.744 58.399ZM256.139 50.108C254.5 50.108 252.988 51.4881 252.635 53.4101C252.43 54.5301 252.656 55.666 253.253 56.528C253.742 57.232 254.446 57.698 255.235 57.838C257.067 58.156 258.86 56.701 259.249 54.581C259.454 53.461 259.228 52.324 258.63 51.463C258.141 50.759 257.438 50.294 256.649 50.154C256.478 50.123 256.308 50.108 256.139 50.108Z" fill="white"/>
<path d="M252.381 53.623C252.298 53.623 252.216 53.582 252.166 53.508C251.375 52.325 250.374 52.738 250.329 52.757C250.2 52.812 250.047 52.754 249.989 52.624C249.932 52.494 249.99 52.342 250.12 52.285C250.133 52.278 251.557 51.667 252.596 53.222C252.675 53.341 252.644 53.501 252.525 53.58C252.481 53.608 252.431 53.623 252.381 53.623Z" fill="white"/>
<path d="M246.467 56.2899C246.268 56.2899 246.069 56.2729 245.868 56.2369C244.942 56.0729 244.119 55.5319 243.551 54.7139C242.875 53.7399 242.619 52.4619 242.85 51.2069C243.29 48.8079 245.368 47.1649 247.461 47.5349C248.388 47.6989 249.21 48.2399 249.778 49.0579C250.454 50.0319 250.71 51.3099 250.479 52.5649C250.083 54.7349 248.35 56.2899 246.467 56.2899ZM246.862 47.9999C245.223 47.9999 243.711 49.3799 243.358 51.3019C243.153 52.4219 243.379 53.5579 243.976 54.4199C244.465 55.1239 245.169 55.5889 245.958 55.7289C247.789 56.0559 249.583 54.5919 249.972 52.4719C250.177 51.3519 249.951 50.2149 249.354 49.3539C248.865 48.6499 248.161 48.1849 247.372 48.0449C247.201 48.0149 247.031 47.9999 246.862 47.9999Z" fill="white"/>
<path d="M287.045 352.585C286.419 352.585 285.836 352.478 285.472 352.166C285.183 351.918 285.056 351.571 285.095 351.136C285.123 350.812 285.298 350.658 285.442 350.585C286.354 350.119 288.976 351.748 289.272 351.935C289.337 351.978 289.37 352.055 289.356 352.133C289.341 352.209 289.282 352.271 289.205 352.29C288.629 352.428 287.805 352.585 287.045 352.585ZM285.864 350.883C285.762 350.883 285.676 350.898 285.61 350.932C285.557 350.959 285.495 351.01 285.482 351.16C285.455 351.47 285.535 351.702 285.729 351.868C286.169 352.247 287.242 352.297 288.645 352.016C287.73 351.478 286.494 350.883 285.864 350.883Z" fill="#9C27B0"/>
<path d="M289.158 352.295C289.126 352.295 289.094 352.287 289.066 352.272C288.226 351.809 286.625 350.007 286.821 349.089C286.856 348.923 286.986 348.636 287.454 348.579C287.76 348.541 288.034 348.626 288.277 348.829C289.214 349.61 289.352 351.984 289.357 352.085C289.361 352.157 289.325 352.225 289.264 352.263C289.232 352.285 289.195 352.295 289.158 352.295ZM287.58 348.961C287.551 348.961 287.522 348.964 287.492 348.967C287.238 348.997 287.213 349.115 287.203 349.163C287.086 349.705 288.101 351.067 288.932 351.709C288.853 351.015 288.625 349.631 288.024 349.131C287.886 349.017 287.741 348.961 287.58 348.961Z" fill="#9C27B0"/>
<path d="M241.416 352.586C240.599 352.586 239.848 352.46 239.43 352.081C239.164 351.84 239.05 351.521 239.089 351.133C239.112 350.902 239.228 350.722 239.423 350.616C240.435 350.054 243.701 351.735 244.07 351.928C244.142 351.966 244.182 352.047 244.168 352.129C244.155 352.211 244.091 352.277 244.009 352.293C243.309 352.431 242.322 352.586 241.416 352.586ZM239.969 350.883C239.818 350.883 239.693 350.906 239.604 350.955C239.525 350.999 239.487 351.062 239.476 351.163C239.45 351.426 239.522 351.632 239.696 351.79C240.191 352.239 241.543 352.315 243.366 352.014C242.242 351.472 240.748 350.883 239.969 350.883Z" fill="#9C27B0"/>
<path d="M243.971 352.295C243.944 352.295 243.917 352.289 243.892 352.278C242.911 351.832 240.987 350.054 241.16 349.123C241.2 348.905 241.362 348.633 241.899 348.58C242.291 348.531 242.658 348.652 242.971 348.913C243.996 349.773 244.163 351.987 244.17 352.082C244.174 352.15 244.142 352.217 244.085 352.259C244.051 352.283 244.011 352.295 243.971 352.295ZM242.046 348.961C242.008 348.961 241.968 348.964 241.929 348.967C241.577 349.004 241.552 349.141 241.543 349.186C241.439 349.745 242.742 351.142 243.74 351.751C243.651 351.104 243.39 349.779 242.717 349.215C242.513 349.044 242.293 348.961 242.046 348.961Z" fill="#9C27B0"/>
<path d="M266.948 78.248L276.448 79.3911C279.716 79.7841 282.14 82.6031 282.033 85.8931C281.548 100.698 279.588 121.053 281.159 152.182C281.951 167.88 292.916 253.127 292.916 253.127L271.309 256.919C271.309 256.919 255.943 210.962 249.759 156.405C247.107 133.008 249.599 111.8 249.599 111.8L266.948 78.248Z" fill="#9C27B0"/>
<path opacity="0.8" d="M266.948 78.248L276.448 79.3911C279.716 79.7841 282.14 82.6031 282.033 85.8931C281.548 100.698 279.588 121.053 281.159 152.182C281.951 167.88 292.916 253.127 292.916 253.127L271.309 256.919C271.309 256.919 255.943 210.962 249.759 156.405C247.107 133.008 249.599 111.8 249.599 111.8L266.948 78.248Z" fill="white"/>
<path opacity="0.2" d="M274.758 97.146C274.758 99.369 276.464 110.672 280.673 118.469C280.787 113.154 280.984 108.293 281.201 103.826L274.758 97.146Z" fill="#9C27B0"/>
<path opacity="0.2" d="M233.869 95.1711C232.649 97.4981 229.133 107.384 227.344 118.169C228.161 117.6 228.936 117.011 229.691 116.411C232.586 114.033 235.048 111.447 237.271 108.779C237.416 108.603 237.56 108.417 237.705 108.241L233.869 95.1711Z" fill="#9C27B0"/>
<path d="M246.926 79.2251L241.321 79.8991C235.749 80.5691 231.491 85.1801 231.277 90.7881C230.641 107.409 229.335 140.608 228.63 152.182C227.673 167.871 228.345 253.127 228.345 253.127L241.812 255.49C241.812 255.49 245.228 208.548 249.758 156.404C251.696 134.1 250.591 109.878 250.591 109.878L246.926 79.2251Z" fill="#9C27B0"/>
<path opacity="0.8" d="M246.926 79.2251L241.321 79.8991C235.749 80.5691 231.491 85.1801 231.277 90.7881C230.641 107.409 229.335 140.608 228.63 152.182C227.673 167.871 228.345 253.127 228.345 253.127L241.812 255.49C241.812 255.49 245.228 208.548 249.758 156.404C251.696 134.1 250.591 109.878 250.591 109.878L246.926 79.2251Z" fill="white"/>
<path d="M252.734 83.8279C254.668 86.8389 255.717 90.2489 255.717 90.2489C255.717 90.2489 268.856 85.7439 268.379 78.5059C268.379 78.5059 266.421 77.3259 265.181 76.3669C265.181 76.3669 264.593 80.9279 252.734 83.8279Z" fill="#F5F5F5"/>
<path d="M252.734 83.8281C250.158 86.8521 248.998 89.5531 248.998 89.5531C248.998 89.5531 243.607 85.9571 245.687 78.8011C245.687 78.8011 247.496 78.0511 249.3 77.6611C249.3 77.6611 248.354 82.2791 252.734 83.8281Z" fill="#F5F5F5"/>
<path opacity="0.2" d="M266.37 156.554L281.421 169.478L271.142 164.452L266.37 156.554Z" fill="#9C27B0"/>
<path d="M281.477 83.1831C282.123 84.0681 282.602 84.7721 283.14 85.5621L284.67 87.8741C285.671 89.4201 286.639 90.9821 287.579 92.5651C289.467 95.7271 291.254 98.9711 292.888 102.357C294.508 105.754 296.013 109.271 297.204 113.086C297.803 114.988 298.31 116.979 298.675 119.087C299.045 121.178 299.243 123.472 299.187 125.748C299.029 130.241 298.072 134.323 296.783 138.093C295.489 141.867 293.846 145.349 292.063 148.68C290.271 152.004 288.311 155.167 286.214 158.209C285.171 159.735 284.102 161.236 282.991 162.713C282.438 163.453 281.87 164.184 281.293 164.916C280.697 165.666 280.161 166.332 279.442 167.172L268.867 157.995C269.275 157.516 269.832 156.834 270.314 156.223L271.792 154.301C272.765 153.002 273.713 151.679 274.62 150.333C276.427 147.636 278.087 144.865 279.552 142.059C281.004 139.251 282.231 136.387 283.124 133.57C284.011 130.758 284.546 127.982 284.529 125.524C284.505 123.211 283.913 120.576 282.918 117.775C281.939 114.994 280.619 112.149 279.106 109.354C277.588 106.556 275.904 103.78 274.09 101.07C273.178 99.7191 272.239 98.3801 271.275 97.0651L269.816 95.1151C269.341 94.4961 268.798 93.7971 268.389 93.3041L281.477 83.1831Z" fill="#9C27B0"/>
<path opacity="0.8" d="M281.477 83.1831C282.123 84.0681 282.602 84.7721 283.14 85.5621L284.67 87.8741C285.671 89.4201 286.639 90.9821 287.579 92.5651C289.467 95.7271 291.254 98.9711 292.888 102.357C294.508 105.754 296.013 109.271 297.204 113.086C297.803 114.988 298.31 116.979 298.675 119.087C299.045 121.178 299.243 123.472 299.187 125.748C299.029 130.241 298.072 134.323 296.783 138.093C295.489 141.867 293.846 145.349 292.063 148.68C290.271 152.004 288.311 155.167 286.214 158.209C285.171 159.735 284.102 161.236 282.991 162.713C282.438 163.453 281.87 164.184 281.293 164.916C280.697 165.666 280.161 166.332 279.442 167.172L268.867 157.995C269.275 157.516 269.832 156.834 270.314 156.223L271.792 154.301C272.765 153.002 273.713 151.679 274.62 150.333C276.427 147.636 278.087 144.865 279.552 142.059C281.004 139.251 282.231 136.387 283.124 133.57C284.011 130.758 284.546 127.982 284.529 125.524C284.505 123.211 283.913 120.576 282.918 117.775C281.939 114.994 280.619 112.149 279.106 109.354C277.588 106.556 275.904 103.78 274.09 101.07C273.178 99.7191 272.239 98.3801 271.275 97.0651L269.816 95.1151C269.341 94.4961 268.798 93.7971 268.389 93.3041L281.477 83.1831Z" fill="white"/>
<path d="M267.99 100.523C267.369 102.054 265.578 102.975 263.99 102.58C262.403 102.185 261.619 100.623 262.241 99.0921C262.863 97.5611 264.653 96.6401 266.241 97.0351C267.828 97.4311 268.611 98.9921 267.99 100.523Z" fill="#263238"/>
<path opacity="0.2" d="M267.99 100.523C267.369 102.054 265.578 102.975 263.99 102.58C262.403 102.185 261.619 100.623 262.241 99.0921C262.863 97.5611 264.653 96.6401 266.241 97.0351C267.828 97.4311 268.611 98.9921 267.99 100.523Z" fill="white"/>
<path d="M264.707 98.973C264.628 98.973 264.549 98.95 264.48 98.9C264.306 98.775 264.267 98.533 264.392 98.358C271.83 88.012 269.746 78.809 269.725 78.717C269.675 78.509 269.803 78.299 270.011 78.25C270.232 78.197 270.429 78.329 270.479 78.536C270.502 78.631 272.677 88.161 265.021 98.811C264.947 98.917 264.828 98.973 264.707 98.973Z" fill="#263238"/>
<path d="M238.769 93.745C238.569 93.745 238.399 93.591 238.382 93.388C237.569 83.229 242.949 79.482 243.179 79.327C243.356 79.207 243.597 79.255 243.716 79.431C243.836 79.608 243.79 79.849 243.613 79.97C243.56 80.006 238.38 83.647 239.155 93.326C239.172 93.539 239.012 93.726 238.8 93.743C238.79 93.745 238.779 93.745 238.769 93.745Z" fill="#263238"/>
<path d="M266.905 100.253C266.284 101.784 264.493 102.705 262.905 102.31C261.318 101.915 260.534 100.354 261.156 98.8221C261.778 97.2911 263.568 96.37 265.156 96.765C266.744 97.16 267.527 98.7221 266.905 100.253Z" fill="#263238"/>
<path opacity="0.4" d="M266.905 100.253C266.284 101.784 264.493 102.705 262.905 102.31C261.318 101.915 260.534 100.354 261.156 98.8221C261.778 97.2911 263.568 96.37 265.156 96.765C266.744 97.16 267.527 98.7221 266.905 100.253Z" fill="white"/>
<path opacity="0.4" d="M265.226 99.713C264.899 100.518 263.958 101.002 263.123 100.794C262.288 100.586 261.877 99.765 262.204 98.961C262.531 98.156 263.472 97.672 264.307 97.88C265.141 98.087 265.553 98.908 265.226 99.713Z" fill="white"/>
<path d="M241.815 117.386C241.601 117.386 241.427 117.213 241.427 116.998C241.427 116.784 241.601 116.61 241.815 116.61C243.323 116.61 244.62 115.383 244.706 113.876L245.451 100.833C245.558 98.9429 244.92 97.164 243.651 95.821C242.386 94.482 240.653 93.7449 238.769 93.7449C234.836 93.7449 231.455 96.944 231.23 100.877L230.484 113.92C230.443 114.642 230.684 115.318 231.164 115.826C231.643 116.332 232.302 116.611 233.021 116.611C233.235 116.611 233.409 116.784 233.409 116.999C233.409 117.213 233.235 117.387 233.021 117.387C232.085 117.387 231.226 117.022 230.6 116.359C229.972 115.695 229.657 114.814 229.71 113.877L230.456 100.834C230.703 96.498 234.433 92.9709 238.769 92.9709C240.869 92.9709 242.802 93.7949 244.215 95.2899C245.631 96.7889 246.344 98.774 246.224 100.878L245.479 113.921C245.37 115.831 243.727 117.386 241.815 117.386Z" fill="#263238"/>
<path d="M233.665 116.998C233.629 117.625 233.312 118.133 232.956 118.133C232.6 118.133 232.341 117.625 232.377 116.998C232.413 116.371 232.73 115.863 233.086 115.863C233.441 115.864 233.701 116.372 233.665 116.998Z" fill="#263238"/>
<path d="M242.459 116.998C242.423 117.625 242.106 118.133 241.75 118.133C241.394 118.133 241.135 117.625 241.171 116.998C241.207 116.371 241.524 115.863 241.88 115.863C242.235 115.864 242.495 116.372 242.459 116.998Z" fill="#263238"/>
<path d="M161.944 38.044L161.231 37.529C162.791 35.37 164.797 33.652 167.198 32.422C171.2 30.37 175.763 30.001 180.041 31.381L179.771 32.218C175.713 30.911 171.392 31.262 167.598 33.205C165.324 34.37 163.421 35.998 161.944 38.044Z" fill="#9C27B0"/>
<path d="M158.917 46.962L158.038 46.937C158.084 45.353 158.357 43.773 158.851 42.241L159.689 42.511C159.221 43.963 158.961 45.461 158.917 46.962Z" fill="#9C27B0"/>
<path d="M205.929 47.6971C202.656 40.4961 194.079 37.5631 187.12 41.1291C183.615 34.2901 175.175 31.6351 168.372 35.2801C161.695 38.8581 159.384 47.3441 162.84 54.0861L171.849 71.6631C173.69 75.2561 178.096 76.6761 181.689 74.8341L199.326 65.7951C205.918 62.4161 208.995 54.4421 205.929 47.6971Z" fill="#9C27B0"/>
</g>
<defs>
<clipPath id="clip0_105_2">
<rect width="500" height="373" fill="white"/>
</clipPath>
</defs>
</svg>
